<mxfile host="app.diagrams.net" modified="2022-09-09T00:02:39.235Z" agent="5.0 (Windows NT 10.0; Win64; x64) AppleWebKit/537.36 (KHTML, like Gecko) Chrome/104.0.0.0 Safari/537.36" etag="FJbOm1YqWTe3jkh70zwL" version="20.2.8" type="github">
  <diagram id="oc-jUGZAYGa1-tKlhP68" name="Page-1">
    <mxGraphModel dx="1717" dy="772" grid="1" gridSize="10" guides="1" tooltips="1" connect="1" arrows="1" fold="1" page="1" pageScale="1" pageWidth="827" pageHeight="1169" math="0" shadow="0">
      <root>
        <mxCell id="0" />
        <mxCell id="1" parent="0" />
        <mxCell id="harxuGrm4AztC1KKtY4f-13" style="edgeStyle=orthogonalEdgeStyle;rounded=0;orthogonalLoop=1;jettySize=auto;html=1;entryX=0;entryY=0.5;entryDx=0;entryDy=0;" edge="1" parent="1" source="harxuGrm4AztC1KKtY4f-2" target="harxuGrm4AztC1KKtY4f-3">
          <mxGeometry relative="1" as="geometry" />
        </mxCell>
        <mxCell id="harxuGrm4AztC1KKtY4f-2" value="Pending" style="rounded=0;whiteSpace=wrap;html=1;" vertex="1" parent="1">
          <mxGeometry x="20" y="250" width="120" height="60" as="geometry" />
        </mxCell>
        <mxCell id="harxuGrm4AztC1KKtY4f-15" style="edgeStyle=orthogonalEdgeStyle;rounded=0;orthogonalLoop=1;jettySize=auto;html=1;entryX=1;entryY=0.5;entryDx=0;entryDy=0;" edge="1" parent="1" source="harxuGrm4AztC1KKtY4f-3" target="harxuGrm4AztC1KKtY4f-2">
          <mxGeometry relative="1" as="geometry" />
        </mxCell>
        <mxCell id="harxuGrm4AztC1KKtY4f-17" style="edgeStyle=orthogonalEdgeStyle;rounded=0;orthogonalLoop=1;jettySize=auto;html=1;entryX=0;entryY=0.5;entryDx=0;entryDy=0;" edge="1" parent="1" source="harxuGrm4AztC1KKtY4f-3" target="harxuGrm4AztC1KKtY4f-7">
          <mxGeometry relative="1" as="geometry" />
        </mxCell>
        <mxCell id="harxuGrm4AztC1KKtY4f-18" style="edgeStyle=orthogonalEdgeStyle;rounded=0;orthogonalLoop=1;jettySize=auto;html=1;entryX=0.5;entryY=0;entryDx=0;entryDy=0;" edge="1" parent="1" source="harxuGrm4AztC1KKtY4f-3" target="harxuGrm4AztC1KKtY4f-4">
          <mxGeometry relative="1" as="geometry">
            <mxPoint x="320.0000000000001" y="470" as="targetPoint" />
            <Array as="points">
              <mxPoint x="310" y="390" />
              <mxPoint x="480" y="390" />
              <mxPoint x="480" y="470" />
              <mxPoint x="570" y="470" />
            </Array>
          </mxGeometry>
        </mxCell>
        <mxCell id="harxuGrm4AztC1KKtY4f-19" style="edgeStyle=orthogonalEdgeStyle;rounded=0;orthogonalLoop=1;jettySize=auto;html=1;" edge="1" parent="1" source="harxuGrm4AztC1KKtY4f-3" target="harxuGrm4AztC1KKtY4f-5">
          <mxGeometry relative="1" as="geometry" />
        </mxCell>
        <mxCell id="harxuGrm4AztC1KKtY4f-3" value="Active" style="rounded=0;whiteSpace=wrap;html=1;" vertex="1" parent="1">
          <mxGeometry x="250" y="250" width="120" height="60" as="geometry" />
        </mxCell>
        <mxCell id="harxuGrm4AztC1KKtY4f-4" value="Suspended" style="rounded=0;whiteSpace=wrap;html=1;" vertex="1" parent="1">
          <mxGeometry x="510" y="525" width="120" height="60" as="geometry" />
        </mxCell>
        <mxCell id="harxuGrm4AztC1KKtY4f-20" style="edgeStyle=orthogonalEdgeStyle;rounded=0;orthogonalLoop=1;jettySize=auto;html=1;entryX=0.5;entryY=1;entryDx=0;entryDy=0;" edge="1" parent="1" source="harxuGrm4AztC1KKtY4f-5" target="harxuGrm4AztC1KKtY4f-3">
          <mxGeometry relative="1" as="geometry" />
        </mxCell>
        <mxCell id="harxuGrm4AztC1KKtY4f-21" style="edgeStyle=orthogonalEdgeStyle;rounded=0;orthogonalLoop=1;jettySize=auto;html=1;entryX=1;entryY=0.5;entryDx=0;entryDy=0;" edge="1" parent="1" source="harxuGrm4AztC1KKtY4f-5" target="harxuGrm4AztC1KKtY4f-6">
          <mxGeometry relative="1" as="geometry" />
        </mxCell>
        <mxCell id="harxuGrm4AztC1KKtY4f-5" value="Default" style="rounded=0;whiteSpace=wrap;html=1;" vertex="1" parent="1">
          <mxGeometry x="270" y="525" width="120" height="60" as="geometry" />
        </mxCell>
        <mxCell id="harxuGrm4AztC1KKtY4f-11" style="edgeStyle=orthogonalEdgeStyle;rounded=0;orthogonalLoop=1;jettySize=auto;html=1;entryX=0.5;entryY=0;entryDx=0;entryDy=0;" edge="1" parent="1" source="harxuGrm4AztC1KKtY4f-6">
          <mxGeometry relative="1" as="geometry">
            <mxPoint x="90" y="650" as="targetPoint" />
          </mxGeometry>
        </mxCell>
        <mxCell id="harxuGrm4AztC1KKtY4f-6" value="Closed" style="rounded=0;whiteSpace=wrap;html=1;" vertex="1" parent="1">
          <mxGeometry x="30" y="525" width="120" height="60" as="geometry" />
        </mxCell>
        <mxCell id="harxuGrm4AztC1KKtY4f-22" style="edgeStyle=orthogonalEdgeStyle;rounded=0;orthogonalLoop=1;jettySize=auto;html=1;entryX=1;entryY=0.5;entryDx=0;entryDy=0;" edge="1" parent="1" source="harxuGrm4AztC1KKtY4f-7" target="harxuGrm4AztC1KKtY4f-3">
          <mxGeometry relative="1" as="geometry" />
        </mxCell>
        <mxCell id="harxuGrm4AztC1KKtY4f-23" style="edgeStyle=orthogonalEdgeStyle;rounded=0;orthogonalLoop=1;jettySize=auto;html=1;entryX=0.5;entryY=0;entryDx=0;entryDy=0;" edge="1" parent="1" source="harxuGrm4AztC1KKtY4f-7" target="harxuGrm4AztC1KKtY4f-6">
          <mxGeometry relative="1" as="geometry">
            <Array as="points">
              <mxPoint x="540" y="370" />
              <mxPoint x="90" y="370" />
            </Array>
          </mxGeometry>
        </mxCell>
        <mxCell id="harxuGrm4AztC1KKtY4f-7" value="Inactive" style="rounded=0;whiteSpace=wrap;html=1;" vertex="1" parent="1">
          <mxGeometry x="480" y="250" width="120" height="60" as="geometry" />
        </mxCell>
        <mxCell id="harxuGrm4AztC1KKtY4f-12" style="edgeStyle=orthogonalEdgeStyle;rounded=0;orthogonalLoop=1;jettySize=auto;html=1;startArrow=none;" edge="1" parent="1" source="harxuGrm4AztC1KKtY4f-27" target="harxuGrm4AztC1KKtY4f-2">
          <mxGeometry relative="1" as="geometry">
            <mxPoint x="80" y="210" as="sourcePoint" />
          </mxGeometry>
        </mxCell>
        <mxCell id="harxuGrm4AztC1KKtY4f-25" value="" style="ellipse;html=1;shape=endState;fillColor=#000000;strokeColor=#ff0000;" vertex="1" parent="1">
          <mxGeometry x="75" y="650" width="30" height="30" as="geometry" />
        </mxCell>
        <mxCell id="harxuGrm4AztC1KKtY4f-27" value="" style="ellipse;html=1;shape=endState;fillColor=#000000;strokeColor=#ff0000;" vertex="1" parent="1">
          <mxGeometry x="65" y="180" width="30" height="30" as="geometry" />
        </mxCell>
        <mxCell id="harxuGrm4AztC1KKtY4f-28" value="" style="edgeStyle=orthogonalEdgeStyle;rounded=0;orthogonalLoop=1;jettySize=auto;html=1;endArrow=none;" edge="1" parent="1" target="harxuGrm4AztC1KKtY4f-27">
          <mxGeometry relative="1" as="geometry">
            <mxPoint x="80" y="210" as="sourcePoint" />
            <mxPoint x="80" y="250" as="targetPoint" />
          </mxGeometry>
        </mxCell>
        <mxCell id="harxuGrm4AztC1KKtY4f-34" style="edgeStyle=orthogonalEdgeStyle;rounded=0;orthogonalLoop=1;jettySize=auto;html=1;entryX=0;entryY=0.5;entryDx=0;entryDy=0;" edge="1" parent="1" source="harxuGrm4AztC1KKtY4f-29" target="harxuGrm4AztC1KKtY4f-30">
          <mxGeometry relative="1" as="geometry" />
        </mxCell>
        <mxCell id="harxuGrm4AztC1KKtY4f-29" value="Grace" style="rounded=0;whiteSpace=wrap;html=1;" vertex="1" parent="1">
          <mxGeometry x="30" y="880" width="120" height="60" as="geometry" />
        </mxCell>
        <mxCell id="harxuGrm4AztC1KKtY4f-36" style="edgeStyle=orthogonalEdgeStyle;rounded=0;orthogonalLoop=1;jettySize=auto;html=1;entryX=0;entryY=0.5;entryDx=0;entryDy=0;" edge="1" parent="1" source="harxuGrm4AztC1KKtY4f-30" target="harxuGrm4AztC1KKtY4f-35">
          <mxGeometry relative="1" as="geometry" />
        </mxCell>
        <mxCell id="harxuGrm4AztC1KKtY4f-38" style="edgeStyle=orthogonalEdgeStyle;rounded=0;orthogonalLoop=1;jettySize=auto;html=1;entryX=0.5;entryY=0;entryDx=0;entryDy=0;" edge="1" parent="1" source="harxuGrm4AztC1KKtY4f-30" target="harxuGrm4AztC1KKtY4f-37">
          <mxGeometry relative="1" as="geometry" />
        </mxCell>
        <mxCell id="harxuGrm4AztC1KKtY4f-30" value="Charged" style="rounded=0;whiteSpace=wrap;html=1;" vertex="1" parent="1">
          <mxGeometry x="250" y="880" width="120" height="60" as="geometry" />
        </mxCell>
        <mxCell id="harxuGrm4AztC1KKtY4f-32" style="edgeStyle=orthogonalEdgeStyle;rounded=0;orthogonalLoop=1;jettySize=auto;html=1;" edge="1" parent="1" source="harxuGrm4AztC1KKtY4f-31" target="harxuGrm4AztC1KKtY4f-29">
          <mxGeometry relative="1" as="geometry" />
        </mxCell>
        <mxCell id="harxuGrm4AztC1KKtY4f-33" style="edgeStyle=orthogonalEdgeStyle;rounded=0;orthogonalLoop=1;jettySize=auto;html=1;entryX=0.5;entryY=0;entryDx=0;entryDy=0;" edge="1" parent="1" source="harxuGrm4AztC1KKtY4f-31" target="harxuGrm4AztC1KKtY4f-30">
          <mxGeometry relative="1" as="geometry" />
        </mxCell>
        <mxCell id="harxuGrm4AztC1KKtY4f-31" value="" style="ellipse;html=1;shape=endState;fillColor=#000000;strokeColor=#ff0000;" vertex="1" parent="1">
          <mxGeometry x="75" y="810" width="30" height="30" as="geometry" />
        </mxCell>
        <mxCell id="harxuGrm4AztC1KKtY4f-39" style="edgeStyle=orthogonalEdgeStyle;rounded=0;orthogonalLoop=1;jettySize=auto;html=1;entryX=1;entryY=0.75;entryDx=0;entryDy=0;" edge="1" parent="1" source="harxuGrm4AztC1KKtY4f-35" target="harxuGrm4AztC1KKtY4f-37">
          <mxGeometry relative="1" as="geometry">
            <mxPoint x="500" y="1060" as="targetPoint" />
            <Array as="points">
              <mxPoint x="500" y="1000" />
              <mxPoint x="440" y="1000" />
              <mxPoint x="440" y="1050" />
              <mxPoint x="400" y="1050" />
              <mxPoint x="400" y="1065" />
            </Array>
          </mxGeometry>
        </mxCell>
        <mxCell id="harxuGrm4AztC1KKtY4f-35" value="Healthy" style="rounded=0;whiteSpace=wrap;html=1;" vertex="1" parent="1">
          <mxGeometry x="440" y="880" width="120" height="60" as="geometry" />
        </mxCell>
        <mxCell id="harxuGrm4AztC1KKtY4f-44" style="edgeStyle=orthogonalEdgeStyle;rounded=0;orthogonalLoop=1;jettySize=auto;html=1;entryX=1;entryY=0.5;entryDx=0;entryDy=0;" edge="1" parent="1" source="harxuGrm4AztC1KKtY4f-37" target="harxuGrm4AztC1KKtY4f-43">
          <mxGeometry relative="1" as="geometry" />
        </mxCell>
        <mxCell id="harxuGrm4AztC1KKtY4f-37" value="Unhealthy" style="rounded=0;whiteSpace=wrap;html=1;" vertex="1" parent="1">
          <mxGeometry x="250" y="1020" width="120" height="60" as="geometry" />
        </mxCell>
        <mxCell id="harxuGrm4AztC1KKtY4f-50" style="edgeStyle=orthogonalEdgeStyle;rounded=0;orthogonalLoop=1;jettySize=auto;html=1;" edge="1" parent="1" source="harxuGrm4AztC1KKtY4f-43">
          <mxGeometry relative="1" as="geometry">
            <mxPoint x="-130" y="1170" as="targetPoint" />
            <Array as="points">
              <mxPoint x="-130" y="1139" />
            </Array>
          </mxGeometry>
        </mxCell>
        <mxCell id="harxuGrm4AztC1KKtY4f-43" value="Collection" style="rounded=0;whiteSpace=wrap;html=1;" vertex="1" parent="1">
          <mxGeometry x="-180" y="1000" width="120" height="60" as="geometry" />
        </mxCell>
        <mxCell id="harxuGrm4AztC1KKtY4f-49" value="" style="ellipse;html=1;shape=endState;fillColor=#000000;strokeColor=#ff0000;" vertex="1" parent="1">
          <mxGeometry x="-140" y="1169" width="30" height="30" as="geometry" />
        </mxCell>
        <mxCell id="harxuGrm4AztC1KKtY4f-51" value="Closed" style="text;html=1;align=center;verticalAlign=middle;resizable=0;points=[];autosize=1;strokeColor=none;fillColor=none;" vertex="1" parent="1">
          <mxGeometry x="-100" y="1150" width="60" height="30" as="geometry" />
        </mxCell>
        <mxCell id="harxuGrm4AztC1KKtY4f-53" value="frame" style="shape=umlFrame;whiteSpace=wrap;html=1;fillColor=#000000;" vertex="1" parent="1">
          <mxGeometry y="790" width="570" height="310" as="geometry" />
        </mxCell>
      </root>
    </mxGraphModel>
  </diagram>
</mxfile>
